<?xml version="1.0" encoding="UTF-8"?><svg id="a" xmlns="http://www.w3.org/2000/svg" viewBox="0 0 500 500"><circle cx="250" cy="250" r="180.58" style="fill:#0052ff;"/><path d="M324.11,371.29c-15.19,14.39-35.29,23.06-60.29,26.01v31.05c0,4.57-1.28,8.2-3.83,10.89-2.56,2.68-5.99,4.03-10.28,4.03s-7.73-1.35-10.28-4.03c-2.56-2.69-3.83-6.32-3.83-10.89v-30.65c-16.4-1.08-32.26-4.3-47.59-9.68-15.32-5.38-28.37-13.04-39.12-22.99-4.3-3.49-6.45-8.07-6.45-13.71,0-3.76,1.07-7.06,3.23-9.88,2.15-2.82,4.7-4.23,7.66-4.23,3.23,0,7.12,1.48,11.7,4.44,26.88,18.82,53.9,28.23,81.06,28.23,21.24,0,37.77-4.44,49.6-13.31,11.83-8.87,17.75-21.51,17.75-37.91,0-9.68-3.03-17.54-9.07-23.59-6.05-6.05-13.71-10.75-22.99-14.11-9.28-3.36-21.85-6.92-37.71-10.69-20.44-5.1-36.9-10.21-49.4-15.33-12.5-5.1-23.19-12.91-32.06-23.39-8.87-10.49-13.31-24.6-13.31-42.34,0-14.52,3.63-27.62,10.89-39.32s17.4-21.17,30.45-28.43c13.04-7.26,28.03-11.7,44.97-13.31v-31.05c0-4.3,1.34-7.86,4.03-10.69,2.68-2.82,6.05-4.23,10.08-4.23,4.3,0,7.73,1.35,10.28,4.03,2.55,2.69,3.83,6.32,3.83,10.89v31.05c14.25,1.35,27.96,4.71,41.13,10.08,13.17,5.38,24.33,12.77,33.47,22.18,4.57,3.77,6.86,8.34,6.86,13.71,0,3.77-1.15,7.06-3.43,9.88-2.29,2.82-4.91,4.23-7.86,4.23-3.5,0-7.26-1.47-11.29-4.44-11.83-9.68-23.33-16.8-34.48-21.37-11.16-4.57-24.13-6.86-38.92-6.86-20.44,0-36.64,4.71-48.6,14.11-11.97,9.41-17.95,22.18-17.95,38.31,0,11.29,3.29,20.3,9.88,27.02,6.58,6.72,14.72,11.9,24.4,15.53,9.68,3.63,22.99,7.6,39.93,11.9,19.62,4.84,35.42,9.68,47.39,14.52,11.96,4.84,22.11,12.17,30.45,21.98,8.33,9.82,12.5,22.92,12.5,39.32,0,20.97-7.6,38.65-22.79,53.03Z" style="fill:#fff;"/></svg>