<?xml version="1.0" encoding="UTF-8"?><svg xmlns="http://www.w3.org/2000/svg" viewBox="0 0 720 280"><g id="b"><rect width="724.21" height="280"/></g><g id="c"><g><path d="M530.86,124.19c0,8.67-2.96,15.34-8.88,20.01-5.92,4.67-14.38,7-25.4,7h-10.08v33.69h-9.96V99.22h22.21c21.41,0,32.11,8.32,32.11,24.96Zm-44.36,18.46h8.96c8.83,0,15.21-1.42,19.16-4.28,3.95-2.85,5.92-7.42,5.92-13.71,0-5.66-1.86-9.88-5.57-12.66-3.71-2.77-9.49-4.16-17.34-4.16h-11.13v34.8Z" style="fill:#fff;"/><path d="M602.64,184.89l-10.66-27.25h-34.34l-10.55,27.25h-10.08l33.87-86.02h8.38l33.69,86.02h-10.31Zm-13.77-36.21l-9.96-26.54c-1.29-3.36-2.62-7.48-3.98-12.36-.86,3.75-2.09,7.87-3.69,12.36l-10.08,26.54h27.71Z" style="fill:#fff;"/><path d="M646.53,142.06l22.85-42.83h10.78l-28.59,52.44v33.22h-10.08v-32.75l-28.54-52.91h10.9l22.68,42.83Z" style="fill:#fff;"/></g><g><path d="M180.74,99.22h24.2c11.37,0,19.59,1.7,24.67,5.1,5.08,3.4,7.62,8.77,7.62,16.11,0,5.08-1.42,9.27-4.25,12.57-2.83,3.3-6.96,5.44-12.39,6.42v.59c13.01,2.23,19.51,9.06,19.51,20.51,0,7.66-2.59,13.63-7.76,17.93-5.18,4.3-12.41,6.45-21.71,6.45h-29.88V99.22Zm9.96,36.68h16.41c7.03,0,12.09-1.1,15.18-3.31,3.08-2.21,4.63-5.93,4.63-11.16,0-4.8-1.72-8.27-5.16-10.4-3.44-2.13-8.91-3.19-16.41-3.19h-14.65v28.07Zm0,8.44v32.05h17.87c6.91,0,12.12-1.34,15.62-4.01,3.5-2.68,5.24-6.87,5.24-12.57,0-5.31-1.79-9.22-5.36-11.72s-9.01-3.75-16.32-3.75h-17.05Z" style="fill:#0052ff;"/><path d="M312.35,184.89l-10.66-27.25h-34.34l-10.55,27.25h-10.08l33.87-86.02h8.38l33.69,86.02h-10.31Zm-13.77-36.21l-9.96-26.54c-1.29-3.36-2.62-7.48-3.98-12.36-.86,3.75-2.09,7.87-3.69,12.36l-10.08,26.54h27.71Z" style="fill:#0052ff;"/><path d="M382.78,162.1c0,7.54-2.73,13.42-8.2,17.64-5.47,4.22-12.89,6.33-22.27,6.33-10.16,0-17.97-1.31-23.44-3.93v-9.61c3.52,1.48,7.34,2.66,11.48,3.52,4.14,.86,8.24,1.29,12.3,1.29,6.64,0,11.64-1.26,15-3.78,3.36-2.52,5.04-6.03,5.04-10.52,0-2.97-.6-5.4-1.79-7.29-1.19-1.89-3.18-3.64-5.98-5.24-2.79-1.6-7.04-3.42-12.74-5.45-7.97-2.85-13.66-6.23-17.08-10.14-3.42-3.91-5.13-9-5.13-15.29,0-6.6,2.48-11.85,7.44-15.76,4.96-3.91,11.52-5.86,19.69-5.86s16.35,1.56,23.5,4.69l-3.11,8.67c-7.07-2.97-13.95-4.45-20.62-4.45-5.27,0-9.4,1.13-12.36,3.4-2.97,2.27-4.45,5.41-4.45,9.43,0,2.97,.55,5.4,1.64,7.29,1.09,1.9,2.94,3.63,5.54,5.21,2.6,1.58,6.57,3.33,11.92,5.24,8.98,3.2,15.17,6.64,18.54,10.31,3.38,3.67,5.07,8.44,5.07,14.3Z" style="fill:#0052ff;"/><path d="M448.05,184.89h-47.75V99.22h47.75v8.85h-37.79v27.6h35.51v8.79h-35.51v31.52h37.79v8.91Z" style="fill:#0052ff;"/></g><circle cx="97.84" cy="140.78" r="53.73" style="fill:#0052ff;"/></g><g id="d"><path d="M119.89,176.87c-4.52,4.28-10.5,6.86-17.94,7.74v9.24c0,1.36-.38,2.44-1.14,3.24-.76,.8-1.78,1.2-3.06,1.2s-2.3-.4-3.06-1.2c-.76-.8-1.14-1.88-1.14-3.24v-9.12c-4.88-.32-9.6-1.28-14.16-2.88-4.56-1.6-8.44-3.88-11.64-6.84-1.28-1.04-1.92-2.4-1.92-4.08,0-1.12,.32-2.1,.96-2.94,.64-.84,1.4-1.26,2.28-1.26,.96,0,2.12,.44,3.48,1.32,8,5.6,16.04,8.4,24.12,8.4,6.32,0,11.24-1.32,14.76-3.96,3.52-2.64,5.28-6.4,5.28-11.28,0-2.88-.9-5.22-2.7-7.02s-4.08-3.2-6.84-4.2c-2.76-1-6.5-2.06-11.22-3.18-6.08-1.52-10.98-3.04-14.7-4.56-3.72-1.52-6.9-3.84-9.54-6.96-2.64-3.12-3.96-7.32-3.96-12.6,0-4.32,1.08-8.22,3.24-11.7s5.18-6.3,9.06-8.46c3.88-2.16,8.34-3.48,13.38-3.96v-9.24c0-1.28,.4-2.34,1.2-3.18,.8-.84,1.8-1.26,3-1.26,1.28,0,2.3,.4,3.06,1.2,.76,.8,1.14,1.88,1.14,3.24v9.24c4.24,.4,8.32,1.4,12.24,3,3.92,1.6,7.24,3.8,9.96,6.6,1.36,1.12,2.04,2.48,2.04,4.08,0,1.12-.34,2.1-1.02,2.94-.68,.84-1.46,1.26-2.34,1.26-1.04,0-2.16-.44-3.36-1.32-3.52-2.88-6.94-5-10.26-6.36-3.32-1.36-7.18-2.04-11.58-2.04-6.08,0-10.9,1.4-14.46,4.2-3.56,2.8-5.34,6.6-5.34,11.4,0,3.36,.98,6.04,2.94,8.04,1.96,2,4.38,3.54,7.26,4.62,2.88,1.08,6.84,2.26,11.88,3.54,5.84,1.44,10.54,2.88,14.1,4.32,3.56,1.44,6.58,3.62,9.06,6.54,2.48,2.92,3.72,6.82,3.72,11.7,0,6.24-2.26,11.5-6.78,15.78Z"/></g></svg>