<?xml version="1.0" encoding="utf-8"?>
<!-- Generator: Adobe Illustrator 27.0.1, SVG Export Plug-In . SVG Version: 6.00 Build 0)  -->
<svg version="1.1" id="Layer_1" xmlns="http://www.w3.org/2000/svg" xmlns:xlink="http://www.w3.org/1999/xlink" x="0px" y="0px"
	 viewBox="0 0 123 123" style="enable-background:new 0 0 123 123;" xml:space="preserve">
<style type="text/css">
	.st0{fill:#808080;}
</style>
<path class="st0" d="M25.8,58.4c0-0.7,0.1-1.4,0.4-2s0.6-1.2,1.1-1.7s1.1-0.9,1.7-1.1c0.6-0.3,1.3-0.4,2-0.4h8.6
	c1.4,0,2.7,0.5,3.7,1.5s1.5,2.3,1.5,3.7v32.5c1-0.3,2.2-0.6,3.6-0.9c0.9-0.2,1.8-0.8,2.4-1.5c0.6-0.8,0.9-1.7,0.9-2.7V45.5
	c0-1.4,0.5-2.7,1.5-3.7s2.3-1.5,3.7-1.5h8.6c1.4,0,2.7,0.5,3.7,1.5s1.5,2.3,1.5,3.7v37.4c0,0,2.2-0.9,4.3-1.8
	c0.8-0.3,1.4-0.9,1.9-1.6s0.7-1.5,0.7-2.4V32.6c0-1.4,0.5-2.7,1.5-3.7s2.3-1.5,3.7-1.5h8.6c1.4,0,2.7,0.5,3.7,1.5s1.5,2.3,1.5,3.7
	v36.7c7.5-5.4,15-11.9,21-19.7c0.9-1.1,1.4-2.5,1.7-3.9c0.2-1.4,0.1-2.9-0.4-4.2c-2.8-8-7.2-15.3-13-21.5C100,13.8,93,8.9,85.2,5.6
	S69,0.6,60.6,0.7c-8.5,0.1-16.8,2-24.5,5.5s-14.6,8.6-20.2,14.9C10.2,27.4,6,34.8,3.4,42.9s-3.5,16.6-2.6,25s3.5,16.6,7.7,23.9
	c0.7,1.3,1.8,2.3,3.1,3s2.8,1,4.2,0.8c1.6-0.1,3.7-0.3,6.1-0.6c1-0.1,2-0.6,2.7-1.4s1.1-1.8,1.1-2.9L25.8,58.4z"/>
<path class="st0" d="M25.6,110.5c9.1,6.6,19.8,10.6,31,11.4c11.2,0.9,22.4-1.3,32.4-6.4s18.4-12.9,24.3-22.4c5.9-9.6,9-20.6,9-31.8
	c0-1.4-0.1-2.8-0.2-4.2C99.8,90.3,58.8,105.8,25.6,110.5"/>
</svg>
